<svg width="33" height="43" viewBox="0 0 33 43" fill="none" xmlns="http://www.w3.org/2000/svg">
    <g>
        <path d="M16.5534 41.644C16.5353 41.6597 16.5175 41.6752 16.5 41.6903C16.4825 41.6752 16.4647 41.6597 16.4466 41.644C16.0046 41.2603 15.3705 40.6955 14.6083 39.9761C13.0825 38.5361 11.0502 36.4831 9.02049 34.0298C4.92079 29.0745 1 22.6848 1 16.5C1 7.93959 7.93959 1 16.5 1C25.0604 1 32 7.93959 32 16.5C32 22.6848 28.0792 29.0745 23.9795 34.0298C21.9498 36.4831 19.9175 38.5361 18.3917 39.9761C17.6295 40.6955 16.9954 41.2603 16.5534 41.644ZM16.5 23.9028C20.5885 23.9028 23.9028 20.5885 23.9028 16.5C23.9028 12.4116 20.5885 9.09721 16.5 9.09721C12.4115 9.09721 9.0972 12.4116 9.0972 16.5C9.0972 20.5885 12.4115 23.9028 16.5 23.9028Z" fill="url(#paint0_linear_1023_5)" stroke="white" stroke-width="2"/>
    </g>
    <defs>
        <linearGradient id="paint0_linear_1023_5" x1="-1.10065" y1="44.0969" x2="42.9418" y2="10.5184" gradientUnits="userSpaceOnUse">
            <stop stop-color="#FB7099"/>
            <stop offset="1" stop-color="#F0AB13"/>
        </linearGradient>
    </defs>
</svg>
